<?xml version="1.0" encoding="UTF-8"?>
<!-- Generator: visioncortex VTracer 0.6.4 -->
<svg version="1.1" xmlns="http://www.w3.org/2000/svg" width="611" height="656">
<path d="M0 0 C1.05960938 0.00676758 1.05960938 0.00676758 2.140625 0.01367188 C3.88545275 0.02546125 5.630237 0.04339676 7.375 0.0625 C9.68509163 5.86507485 10.25185762 11.7794045 10.99084473 17.93183899 C11.14067291 19.13754883 11.29050109 20.34325868 11.44486952 21.58550519 C11.85880112 24.92673358 12.2671589 28.26855783 12.67317438 31.61075175 C13.11327935 35.22219131 13.56057439 38.83274106 14.00698853 42.44340515 C14.78146859 48.71558893 15.5513905 54.98831881 16.31825256 61.26143837 C17.43779689 70.41946 18.56433765 79.57661069 19.6924991 88.73357429 C21.53715119 103.70761277 23.37627298 118.68232511 25.21191406 133.6574707 C26.97025301 148.00188244 28.73092891 162.34600369 30.49511719 176.68969727 C30.60252208 177.56296221 30.70992697 178.43622716 30.82058656 179.33595468 C31.46826503 184.60179958 32.11603448 189.86763328 32.76382422 195.13346449 C33.72365679 202.93603226 34.6833102 210.73862206 35.64282227 218.54122925 C35.74726548 219.39053544 35.85170869 220.23984162 35.95931685 221.11488436 C37.51915838 233.79981353 39.07658137 246.48503815 40.63256836 259.17044067 C41.4281584 265.65611547 42.22380643 272.14178315 43.01953125 278.62744141 C43.11553234 279.4099356 43.21153343 280.19242978 43.31044364 280.99863592 C45.66975788 300.22802357 48.03829289 319.45618838 50.43472004 338.68099415 C50.81445319 341.72779799 51.19370046 344.77466189 51.57277679 347.82154751 C51.80920614 349.72146199 52.04564834 351.62137487 52.28210449 353.52128601 C52.39419172 354.42191409 52.50627894 355.32254216 52.62176275 356.250462 C53.25097754 361.30250207 53.88402555 366.35404144 54.52041626 371.40518236 C54.89041862 374.34810133 55.25710355 377.29142632 55.62283516 380.23487878 C55.86153895 382.14683796 56.10466142 384.05824393 56.3480072 385.96961784 C58.32501398 401.94211151 58.32501398 401.94211151 54.375 407.0625 C50.8900968 409.3857688 49.52170244 409.31524114 45.40649414 409.32128906 C43.56427025 409.33074554 43.56427025 409.33074554 41.68482971 409.34039307 C40.34327044 409.33681287 39.00171247 409.3327108 37.66015625 409.328125 C36.28397045 409.32947245 34.90778512 409.33141366 33.53160095 409.33392334 C30.64740466 409.33687183 27.76333228 409.33258655 24.87915039 409.32324219 C21.18582554 409.31185841 17.49279171 409.31840186 13.79947758 409.33038712 C10.95728879 409.33762235 8.11516871 409.33530998 5.27297783 409.33013153 C3.91144209 409.32879907 2.54990007 409.3304286 1.18837166 409.33509064 C-0.71678418 409.34018169 -2.62196194 409.33104346 -4.52709961 409.32128906 C-5.61059189 409.31969788 -6.69408417 409.31810669 -7.81040955 409.31646729 C-12.3833925 408.903836 -12.3833925 408.903836 -14.625 407.0625 C-17.06667028 401.43405803 -18.23066303 396.31246984 -18.85220337 390.23762512 C-18.99587249 388.95859543 -18.99587249 388.95859543 -19.14244401 387.65372676 C-19.45856822 384.81677943 -19.75978807 381.97845515 -20.06103516 379.13989258 C-20.28554808 377.09749042 -20.51099031 375.05519024 -20.73728943 373.01298523 C-21.34767409 367.48122544 -21.94523909 361.94814708 -22.54061937 356.41475511 C-23.16632428 350.62133004 -23.80426343 344.82925313 -24.44100952 339.03703308 C-25.64497364 328.06873178 -26.83865459 317.09933821 -28.02831495 306.1294772 C-29.77563693 290.02126722 -31.53729027 273.9146233 -33.30029869 257.80812359 C-33.42955699 256.62718886 -33.55881528 255.44625413 -33.69199049 254.22953349 C-33.94968811 251.87516419 -34.20741253 249.52079782 -34.46516454 247.16643447 C-35.21994158 240.26878483 -35.97134451 233.37077799 -36.71980691 226.47244036 C-37.18515722 222.18589016 -37.65219571 217.8995249 -38.11953926 213.6131916 C-38.33600759 211.62386398 -38.55169038 209.63445071 -38.76653481 207.64494705 C-39.05958395 204.93188098 -39.35535427 202.21912462 -39.65176392 199.50642395 C-39.73629653 198.71712787 -39.82082914 197.92783179 -39.90792334 197.11461765 C-40.31808605 193.38617138 -40.8093968 189.72524387 -41.625 186.0625 C-49.59627245 198.75081084 -57.5132625 211.46739695 -65.28613281 224.27832031 C-69.66494864 231.49322009 -74.07410303 238.6888893 -78.5 245.875 C-79.16620361 246.95676514 -79.83240723 248.03853027 -80.51879883 249.15307617 C-83.23384246 253.5604872 -85.94995121 257.96724142 -88.66601562 262.37402344 C-95.74271332 273.85754295 -102.80912643 285.34657998 -109.8125 296.875 C-114.70115669 304.92165755 -119.6302769 312.94181219 -124.59277344 320.94311523 C-134.06365863 336.21427615 -143.48220046 351.51752042 -152.8125 366.875 C-158.88024486 376.85866692 -164.98852523 386.81584993 -171.17480469 396.7265625 C-172.5391541 398.92422162 -173.88487901 401.13220665 -175.2265625 403.34375 C-176.0047056 404.6044771 -176.78331539 405.86491633 -177.5625 407.125 C-178.21089844 408.18847656 -178.85929687 409.25195312 -179.52734375 410.34765625 C-182.52626347 414.22893969 -185.527777 416.66190684 -190.40625 417.59375 C-196.29901243 417.5260171 -200.17285078 417.30757251 -204.625 413.0625 C-209.10446372 406.94881098 -212.87983653 400.35502115 -216.6875 393.8125 C-221.56713403 385.49122562 -226.55812443 377.25098116 -231.65820312 369.06323242 C-236.48422071 361.3114052 -241.23137798 353.51298264 -245.95678711 345.69946289 C-246.50858643 344.7893042 -247.06038574 343.87914551 -247.62890625 342.94140625 C-248.14340332 342.07789551 -248.65790039 341.21438477 -249.18798828 340.32470703 C-250.66924379 337.87038321 -250.66924379 337.87038321 -253.08984375 335.21484375 C-257.75552705 325.63416583 -252.24392009 307.59765132 -250.90234375 297.23046875 C-250.63444484 295.14158217 -250.36683595 293.05265837 -250.09950256 290.96369934 C-249.40041621 285.50710321 -248.69743106 280.05101648 -247.99359131 274.59503174 C-247.27393917 269.01092649 -246.55803273 263.42634115 -245.84179688 257.84179688 C-244.43983254 246.9148955 -243.03374272 235.98852939 -241.625 225.0625 C-240.635 225.0625 -239.645 225.0625 -238.625 225.0625 C-237.06958008 227.03662109 -237.06958008 227.03662109 -235.39453125 229.8359375 C-234.76458252 230.87532471 -234.13463379 231.91471191 -233.4855957 232.9855957 C-232.80280842 234.13617783 -232.12011233 235.28681407 -231.4375 236.4375 C-230.72535724 237.61943027 -230.01204187 238.80065474 -229.29760742 239.98120117 C-227.80970115 242.44193336 -226.32694437 244.90566011 -224.84765625 247.37158203 C-221.42456126 253.06822241 -217.9278105 258.71936094 -214.4375 264.375 C-213.12095786 266.51423929 -211.80455018 268.65356134 -210.48828125 270.79296875 C-204.8839198 279.89316203 -199.25695406 288.97936411 -193.625 298.0625 C-191.13273157 295.76953923 -189.46480295 293.37630796 -187.7265625 290.4765625 C-186.89402954 289.09670166 -186.89402954 289.09670166 -186.04467773 287.68896484 C-185.45243408 286.69848145 -184.86019043 285.70799805 -184.25 284.6875 C-182.98376089 282.58812656 -181.71681884 280.48917696 -180.44921875 278.390625 C-179.80903809 277.32908203 -179.16885742 276.26753906 -178.50927734 275.17382812 C-175.72461832 270.57578528 -172.89749293 266.00462721 -170.0625 261.4375 C-169.52874756 260.57680908 -168.99499512 259.71611816 -168.44506836 258.8293457 C-167.37057622 257.09714692 -166.2957897 255.3651307 -165.22070312 253.63330078 C-155.66773997 238.2427405 -146.1620971 222.8232767 -136.67333984 207.39306641 C-132.66117472 200.86935287 -128.6465248 194.34716821 -124.63232422 187.82470703 C-121.26055555 182.34589233 -117.88942116 176.86668927 -114.51953125 171.38671875 C-107.87881323 160.58921541 -101.22842091 149.79796142 -94.55126953 139.02294922 C-87.5493722 127.71912048 -80.58991004 116.38913959 -73.625 105.0625 C-65.61675873 92.0391498 -57.60449018 79.01854358 -49.55126953 66.02294922 C-43.25474324 55.85786803 -36.99388245 45.67085527 -30.73046875 35.48535156 C-28.54034161 31.92434236 -26.34838285 28.36446223 -24.15625 24.8046875 C-23.06172251 23.02705771 -21.96721495 21.24941564 -20.87271118 19.47177124 C-19.83677759 17.78942654 -18.80059394 16.10723583 -17.7644043 14.42504883 C-16.8194812 12.89013794 -16.8194812 12.89013794 -15.85546875 11.32421875 C-15.02631958 9.97783325 -15.02631958 9.97783325 -14.18041992 8.60424805 C-13.10805039 6.85186393 -12.06551227 5.08099273 -11.0480957 3.29614258 C-8.32408354 -0.9793742 -4.59528058 -0.05510945 0 0 Z " fill="#003D79" transform="translate(535.625,-0.0625)"/>
<path d="M0 0 C0.71166321 0.38313354 1.42332642 0.76626709 2.15655518 1.16101074 C4 3 4 3 4.2355957 6.04069519 C4.05130005 7.87136284 4.05130005 7.87136284 3.86328125 9.73901367 C3.80135086 10.40333247 3.73942047 11.06765127 3.6756134 11.75210094 C3.47382603 13.83794314 3.24049518 15.91829619 3 18 C2.86513184 19.24109528 2.73026367 20.48219055 2.59130859 21.76089478 C2.15466784 25.57039018 1.67726681 29.37276505 1.1875 33.17578125 C1.01168047 34.56199119 0.83614936 35.94823773 0.66088867 37.33451843 C0.29727329 40.20279365 -0.06940797 43.07065393 -0.43847656 45.93823242 C-0.91147176 49.61491037 -1.37704031 53.29248531 -1.84046936 56.97037983 C-2.19977316 59.81622421 -2.56262594 62.66160708 -2.92660522 65.50685692 C-3.09987849 66.86432925 -3.27210746 68.22193531 -3.44326782 69.57967567 C-3.68125595 71.46283392 -3.92448133 73.3453281 -4.16796875 75.2277832 C-4.30485107 76.29728714 -4.4417334 77.36679108 -4.58276367 78.46870422 C-5 81 -5 81 -6 83 C-9.62941 81.48568834 -11.76284414 79.35056071 -14.4375 76.5 C-38.11925874 52.47252215 -71.43048637 39.21824296 -104.99853516 38.70727539 C-142.35339541 38.51036379 -172.86700138 50.67864455 -199.875 76.5 C-229.64975415 107.63329807 -240.86377823 148.13577501 -240.17739868 190.32313538 C-239.99216527 198.44853007 -239.00227662 206.13301379 -237 214 C-236.80132324 214.78842285 -236.60264648 215.5768457 -236.39794922 216.38916016 C-226.76589221 253.40944819 -205.43493214 286.35685604 -172.23046875 306.33203125 C-153.08564807 317.26611664 -132.05129446 322.23092213 -110.125 322.25 C-109.43058807 322.25067474 -108.73617615 322.25134949 -108.02072144 322.25204468 C-97.38657738 322.23562425 -87.33556026 321.72045931 -77 319 C-76.34612305 318.82839355 -75.69224609 318.65678711 -75.01855469 318.47998047 C-60.56464678 314.58264964 -46.94254944 308.48583898 -34 301 C-33.92406958 306.20796493 -34.15096815 311.15742245 -34.82617188 316.33398438 C-34.95784508 317.3598616 -34.95784508 317.3598616 -35.09217834 318.40646362 C-35.37956897 320.63621142 -35.67408726 322.86495263 -35.96875 325.09375 C-36.17097588 326.65167587 -36.37275101 328.20966032 -36.57409668 329.7677002 C-37.10226246 333.84528042 -37.63650353 337.92204179 -38.17205811 341.99865723 C-38.71867148 346.16789402 -39.2594741 350.33788407 -39.80078125 354.5078125 C-40.86153498 362.67261897 -41.9287147 370.8365687 -43 379 C-52.77226523 381.80635256 -62.4625586 384.5518226 -72.5 386.25 C-73.82644531 386.48976563 -73.82644531 386.48976563 -75.1796875 386.734375 C-86.53962693 388.73319132 -97.7378144 389.24067238 -109.25 389.25 C-110.00122131 389.25067474 -110.75244263 389.25134949 -111.52642822 389.25204468 C-144.30526462 389.2054727 -176.11183882 381.67012259 -205 366 C-205.99725098 365.47019531 -205.99725098 365.47019531 -207.01464844 364.9296875 C-255.88398838 338.91594599 -292.55904182 293.3666492 -308.73046875 240.50390625 C-324.24795953 187.17335647 -318.37374078 129.88472686 -292 81 C-291.68595215 80.40670898 -291.3719043 79.81341797 -291.04833984 79.20214844 C-276.256698 51.39600661 -253.66092697 27.04013758 -228 9 C-227.42781738 8.59378418 -226.85563477 8.18756836 -226.26611328 7.76904297 C-159.80789679 -38.82900862 -70.06934076 -38.91376687 0 0 Z " fill="#003D79" transform="translate(317,116)"/>
<path d="M0 0 C2.60351562 0.28979492 2.60351562 0.28979492 4.06640625 1.79248047 C4.46021484 2.49671143 4.85402344 3.20094238 5.25976562 3.92651367 C5.71778564 4.72025391 6.17580566 5.51399414 6.64770508 6.33178711 C7.12812256 7.20480469 7.60854004 8.07782227 8.10351562 8.97729492 C9.16825572 10.83111746 10.2347163 12.6839527 11.30273438 14.53588867 C11.84849121 15.49350098 12.39424805 16.45111328 12.95654297 17.43774414 C15.51336962 21.86538259 18.20996394 26.20229391 20.91601562 30.53979492 C21.44090576 31.38525879 21.9657959 32.23072266 22.5065918 33.10180664 C29.18005713 43.84699643 35.89145238 54.56869118 42.60351562 65.28979492 C49.35598677 54.6751149 56.02394769 44.01260809 62.60351562 33.28979492 C67.542628 25.24343089 72.50331813 17.21238458 77.54101562 9.22729492 C78.04310547 8.43000977 78.54519531 7.63272461 79.0625 6.8112793 C82.47760099 1.41570956 82.47760099 1.41570956 83.60351562 0.28979492 C85.26968678 0.2491566 86.93739657 0.24707392 88.60351562 0.28979492 C90.06369893 11.69339123 91.51593483 23.0979686 92.95799351 34.50387192 C93.6278275 39.79988328 94.30040871 45.09551565 94.97924805 50.39038086 C95.63409071 55.49887287 96.28174324 60.60822939 96.92439079 65.71826935 C97.17101364 67.66905585 97.4202389 69.61951514 97.67209053 71.56963348 C98.02401825 74.29812828 98.36672967 77.02763299 98.70727539 79.75756836 C98.81372879 80.56605225 98.92018219 81.37453613 99.02986145 82.20751953 C99.47669565 85.86303192 99.64254245 88.76121376 98.60351562 92.28979492 C95.95761549 92.31664171 93.31198467 92.33655849 90.66601562 92.35229492 C89.91126953 92.36067383 89.15652344 92.36905273 88.37890625 92.37768555 C86.45357249 92.38631933 84.52815982 92.34203825 82.60351562 92.28979492 C81.10658794 90.79286724 81.27874417 89.36435578 81.046875 87.27661133 C80.95007446 86.4254776 80.85327393 85.57434387 80.75354004 84.69741821 C80.6019342 83.30841812 80.6019342 83.30841812 80.44726562 81.89135742 C80.34007202 80.94545746 80.23287842 79.9995575 80.12243652 79.0249939 C79.77867187 75.98870854 79.440591 72.95182967 79.10351562 69.91479492 C78.76606599 66.88494839 78.42733015 63.85527266 78.08459473 60.82601929 C77.87103689 58.9377258 77.66057769 57.04907884 77.45349121 55.1600647 C77.30829041 53.87390762 77.30829041 53.87390762 77.16015625 52.56176758 C77.0765686 51.80755524 76.99298096 51.0533429 76.90686035 50.27627563 C76.6298659 48.0865194 76.6298659 48.0865194 75.60351562 45.28979492 C75.24749268 45.87656006 74.89146973 46.4633252 74.5246582 47.06787109 C67.86869135 58.0327063 61.1997175 68.98980094 54.47851562 79.91479492 C53.94718018 80.78386475 53.41584473 81.65293457 52.8684082 82.54833984 C50.32349127 86.67316993 47.75829086 90.59161343 44.60351562 94.28979492 C42.33789062 94.12182617 42.33789062 94.12182617 39.60351562 93.28979492 C37.74414062 91.11401367 37.74414062 91.11401367 35.85351562 87.97729492 C35.49427002 87.39206055 35.13502441 86.80682617 34.76489258 86.20385742 C33.90050155 84.78955663 33.0442903 83.37024161 32.19384766 81.94750977 C30.27189822 78.73560593 28.32693827 75.53788687 26.38085938 72.34057617 C24.09608928 68.58583322 21.81343152 64.82992416 19.54394531 61.06591797 C19.182892 60.46792892 18.82183868 59.86993988 18.44984436 59.25382996 C17.45740525 57.60948315 16.46632882 55.96431413 15.4753418 54.3190918 C13.58389788 51.25804627 11.61660007 48.27164663 9.60351562 45.28979492 C9.53056778 45.86386581 9.45761993 46.43793671 9.38246155 47.02940369 C8.62508541 52.98299356 7.86178246 58.9358018 7.0949707 64.88818359 C6.80925591 67.11227078 6.52507334 69.33655535 6.24243164 71.56103516 C5.8368371 74.75109657 5.4258088 77.94041677 5.01367188 81.12963867 C4.88759048 82.13067123 4.76150909 83.1317038 4.63160706 84.16307068 C4.51155807 85.08394974 4.39150909 86.0048288 4.26782227 86.95361328 C4.16345352 87.76857773 4.05908478 88.58354218 3.95155334 89.42320251 C3.60351562 91.28979492 3.60351562 91.28979492 2.60351562 92.28979492 C-0.09303291 92.36299114 -2.76339895 92.38222029 -5.45898438 92.35229492 C-6.21759766 92.3477832 -6.97621094 92.34327148 -7.7578125 92.33862305 C-9.63740309 92.32680172 -11.51695336 92.3088657 -13.39648438 92.28979492 C-14.65124031 88.01836541 -14.08806031 84.2145196 -13.51611328 79.86523438 C-13.41057632 79.01769592 -13.30503937 78.17015747 -13.19630432 77.29693604 C-12.84581978 74.49801213 -12.48466141 71.70058216 -12.12304688 68.90307617 C-11.87686727 66.96069349 -11.63121802 65.01824352 -11.38607788 63.07572937 C-10.87105873 59.00740097 -10.3510049 54.93975831 -9.82714844 50.87255859 C-9.15439154 45.64766009 -8.49201203 40.42151159 -7.83309364 35.19485188 C-7.32689012 31.18571718 -6.81632471 27.177148 -6.30430222 23.16875267 C-6.05839459 21.24108054 -5.81360603 19.31326533 -5.56993484 17.38530922 C-5.22945168 14.69835972 -4.88337611 12.01219159 -4.53564453 9.32617188 C-4.43481064 8.52253708 -4.33397675 7.71890228 -4.23008728 6.89091492 C-3.38042319 0.40877774 -3.38042319 0.40877774 0 0 Z " fill="#4D4D4D" transform="translate(301.396484375,535.710205078125)"/>
<path d="M0 0 C10.53688085 7.69527647 17.47898896 17.63883159 20.45703125 30.390625 C21.89844045 45.00380666 20.49070766 58.093985 11.42578125 70.078125 C4.12765408 78.65052834 -6.02797198 86.50991645 -17.62670898 87.58349609 C-32.11628953 88.10819285 -44.02997296 87.05620201 -55.55078125 77.265625 C-64.61129159 68.73808586 -71.26560854 58.53680149 -71.87890625 45.75390625 C-72.16407657 29.91838296 -69.58396622 18.12708381 -58.51171875 6.203125 C-42.667373 -8.95233615 -18.65571017 -11.80668601 0 0 Z M-46.78515625 18.0390625 C-52.53506709 25.73116545 -55.44854297 34.79824622 -54.54296875 44.390625 C-52.73297211 53.90077681 -48.08731836 62.12142707 -40.45703125 68.171875 C-33.89779907 72.3483657 -26.9398526 73.303189 -19.39453125 72.02734375 C-11.43296048 69.97409655 -5.01842084 64.53714887 -0.8359375 57.53125 C4.28705535 46.60613555 4.43015893 37.82848462 0.64453125 26.4453125 C-2.81673805 17.54165265 -8.94015326 13.01321949 -17.48046875 9.015625 C-28.970476 6.67072556 -38.7399601 9.34243346 -46.78515625 18.0390625 Z " fill="#4D4D4D" transform="translate(484.54296875,542.609375)"/>
<path d="M0 0 C10.53688085 7.69527647 17.47898896 17.63883159 20.45703125 30.390625 C21.89844045 45.00380666 20.49070766 58.093985 11.42578125 70.078125 C4.12765408 78.65052834 -6.02797198 86.50991645 -17.62670898 87.58349609 C-32.11628953 88.10819285 -44.02997296 87.05620201 -55.55078125 77.265625 C-64.61129159 68.73808586 -71.26560854 58.53680149 -71.87890625 45.75390625 C-72.16407657 29.91838296 -69.58396622 18.12708381 -58.51171875 6.203125 C-42.667373 -8.95233615 -18.65571017 -11.80668601 0 0 Z M-46.78515625 18.0390625 C-52.53506709 25.73116545 -55.44854297 34.79824622 -54.54296875 44.390625 C-52.73297211 53.90077681 -48.08731836 62.12142707 -40.45703125 68.171875 C-33.89779907 72.3483657 -26.9398526 73.303189 -19.39453125 72.02734375 C-11.43296048 69.97409655 -5.01842084 64.53714887 -0.8359375 57.53125 C4.28705535 46.60613555 4.43015893 37.82848462 0.64453125 26.4453125 C-2.81673805 17.54165265 -8.94015326 13.01321949 -17.48046875 9.015625 C-28.970476 6.67072556 -38.7399601 9.34243346 -46.78515625 18.0390625 Z " fill="#4D4D4D" transform="translate(169.54296875,542.609375)"/>
<path d="M0 0 C5.3683021 0 6.05484148 0.48179965 9.65597534 4.06384277 C10.22067535 4.65121216 10.78537537 5.23858154 11.3671875 5.84375 C11.96500031 6.44626587 12.56281311 7.04878174 13.17874146 7.66955566 C15.08948193 9.60163284 16.98194841 11.55060472 18.875 13.5 C20.14082442 14.7823394 21.40774083 16.06360184 22.67578125 17.34375 C28.04377976 22.78405175 33.3193971 28.2528852 38.28222656 34.06835938 C42.13412065 38.39982413 46.32132103 42.42204342 50.4375 46.5 C53.593125 49.635 56.74875 52.77 60 56 C60.33 38.18 60.66 20.36 61 2 C66.61 2 72.22 2 78 2 C78 32.03 78 62.06 78 93 C74 94 74 94 72.38671875 93.09375 C71.54560547 92.30484375 71.54560547 92.30484375 70.6875 91.5 C70.00171875 90.85933594 69.3159375 90.21867188 68.609375 89.55859375 C67.74828125 88.71425781 66.8871875 87.86992188 66 87 C65.43216797 86.44586426 64.86433594 85.89172852 64.27929688 85.32080078 C52.45589959 73.75111135 52.45589959 73.75111135 47.875 68.37109375 C42.44972981 62.09060855 36.44780016 56.34388277 30.5625 50.5 C24.3440625 44.3125 24.3440625 44.3125 18 38 C17.67 55.82 17.34 73.64 17 92 C11.39 92 5.78 92 0 92 C0 61.64 0 31.28 0 0 Z " fill="#4D4D4D" transform="translate(522,536)"/>
<path d="M0 0 C52.0382371 0 52.0382371 0 60.5625 8.33984375 C66.44456287 15.13298701 66.74022939 22.19053967 66.37890625 30.921875 C65.86802354 37.93650286 63.72949668 42.71408365 58.5 47.4375 C55.14068445 50.11731764 52.37635687 52 48 52 C49.22493862 53.94027745 50.45430369 55.87747183 51.6875 57.8125 C52.07671631 58.42472412 52.46593262 59.03694824 52.86694336 59.66772461 C55.32664864 63.50125949 57.86624265 67.26249571 60.4921875 70.984375 C61.37837769 72.24737427 61.37837769 72.24737427 62.2824707 73.53588867 C63.45614284 75.20182378 64.63939749 76.8610547 65.83276367 78.51293945 C66.37392822 79.283396 66.91509277 80.05385254 67.47265625 80.84765625 C67.96000244 81.52836182 68.44734863 82.20906738 68.94946289 82.91040039 C70.21312046 85.42391308 70.19577978 87.22307413 70 90 C67.24894578 90.10812003 64.50214913 90.18734945 61.75 90.25 C60.97269531 90.28351563 60.19539063 90.31703125 59.39453125 90.3515625 C58.26337891 90.37089844 58.26337891 90.37089844 57.109375 90.390625 C56.07248535 90.4220459 56.07248535 90.4220459 55.01464844 90.45410156 C49.78786582 89.27598527 47.01302154 83.31214489 44.234375 79.1171875 C43.57698334 78.13397018 43.57698334 78.13397018 42.90631104 77.13088989 C41.98637817 75.7523458 41.06875342 74.37225895 40.15332031 72.99072266 C38.74711476 70.87065006 37.33111655 68.75736375 35.9140625 66.64453125 C35.02024066 65.30247787 34.12699109 63.96004314 33.234375 62.6171875 C32.80944763 61.98384491 32.38452026 61.35050232 31.94671631 60.69796753 C29 56.22995283 29 56.22995283 29 54 C25.04 54 21.08 54 17 54 C17 65.88 17 77.76 17 90 C11.39 90 5.78 90 0 90 C0 60.3 0 30.6 0 0 Z M17 14 C17 22.58 17 31.16 17 40 C20.155625 40.04125 23.31125 40.0825 26.5625 40.125 C27.5429126 40.14320801 28.5233252 40.16141602 29.53344727 40.18017578 C36.29689037 40.2226916 41.77072978 40.13234543 46.875 35.25 C49.11378983 31.8259685 50 30.06830651 50 26 C48.40289502 20.85377283 46.60618784 17.85144961 42 15 C38.66474327 14.15850924 35.56854319 13.88020295 32.13671875 13.90234375 C30.93728638 13.90609009 30.93728638 13.90609009 29.71362305 13.90991211 C28.71500244 13.91901611 27.71638184 13.92812012 26.6875 13.9375 C23.490625 13.958125 20.29375 13.97875 17 14 Z " fill="#4D4D4D" transform="translate(207,538)"/>
<path d="M0 0 C1.79244141 0.01740234 1.79244141 0.01740234 3.62109375 0.03515625 C5.41740234 0.04869141 5.41740234 0.04869141 7.25 0.0625 C8.17683594 0.07410156 9.10367188 0.08570313 10.05859375 0.09765625 C10.26613281 0.9690625 10.47367188 1.84046875 10.6875 2.73828125 C12.98577537 11.62366384 16.03372868 18.39098118 21.05859375 26.09765625 C26.50359375 25.10765625 26.50359375 25.10765625 32.05859375 24.09765625 C38.05859375 32.59765625 38.05859375 32.59765625 38.05859375 37.09765625 C36.58984375 38.52734375 36.58984375 38.52734375 34.55859375 39.97265625 C28.61225898 44.80405325 25.54276211 51.41657809 22.05859375 58.09765625 C22.84234375 58.88140625 23.62609375 59.66515625 24.43359375 60.47265625 C25.97526042 62.01432292 27.51692708 63.55598958 29.05859375 65.09765625 C28.91744264 70.03794517 25.97729405 73.36042745 23.05859375 77.09765625 C19.58917829 76.63943157 16.38464326 76.20633942 13.05859375 75.09765625 C11.57893449 74.95192567 10.09455532 74.85102357 8.609375 74.78125 C7.76181641 74.73935547 6.91425781 74.69746094 6.04101562 74.65429688 C5.15994141 74.61498047 4.27886719 74.57566406 3.37109375 74.53515625 C2.47841797 74.49197266 1.58574219 74.44878906 0.66601562 74.40429688 C-1.53627969 74.29830405 -3.73882287 74.19748404 -5.94140625 74.09765625 C-6.60140625 77.72765625 -7.26140625 81.35765625 -7.94140625 85.09765625 C-12.56140625 85.09765625 -17.18140625 85.09765625 -21.94140625 85.09765625 C-22.27140625 83.38578125 -22.60140625 81.67390625 -22.94140625 79.91015625 C-24.77067776 72.56681272 -28.05432947 65.91337142 -32.94140625 60.09765625 C-37.02518702 60.09765625 -40.06456538 60.90478214 -43.94140625 62.09765625 C-44.97737525 60.52418449 -45.99472357 58.93844079 -47.00390625 57.34765625 C-47.57238281 56.4659375 -48.14085937 55.58421875 -48.7265625 54.67578125 C-49.94140625 52.09765625 -49.94140625 52.09765625 -50 50.08203125 C-48.66029593 47.57070406 -46.73605631 46.2423341 -44.52294922 44.51220703 C-41.83471268 42.1078164 -40.2329574 39.16470565 -38.50390625 36.03515625 C-38.14103516 35.42349609 -37.77816406 34.81183594 -37.40429688 34.18164062 C-35.9738528 31.65169652 -34.90783666 29.75450124 -35.05859375 26.8046875 C-36.41941228 24.17337024 -38.57197351 22.79878745 -40.94140625 21.09765625 C-40.52361634 15.38786075 -38.36594054 12.48808483 -34.94140625 8.09765625 C-33.67425781 8.42507813 -32.40710938 8.7525 -31.1015625 9.08984375 C-25.81800595 10.26396743 -20.7695797 10.32548641 -15.37890625 10.22265625 C-14.46560547 10.21363281 -13.55230469 10.20460938 -12.61132812 10.1953125 C-10.38773306 10.17202878 -8.16471948 10.13933335 -5.94140625 10.09765625 C-5.80863281 9.45957031 -5.67585937 8.82148438 -5.5390625 8.1640625 C-5.36246094 7.33777344 -5.18585937 6.51148438 -5.00390625 5.66015625 C-4.82988281 4.83644531 -4.65585937 4.01273437 -4.4765625 3.1640625 C-3.64421887 -0.04987748 -3.45999336 0.11487362 0 0 Z M-19.87890625 27.97265625 C-20.59033653 29.67116324 -21.27758393 31.37998371 -21.94140625 33.09765625 C-22.53050781 33.82082031 -23.11960937 34.54398437 -23.7265625 35.2890625 C-25.87184653 38.09894478 -26.66822329 39.53732093 -26.94140625 43.09765625 C-24.6477623 49.64449175 -20.63753049 55.2708251 -16.94140625 61.09765625 C-9.68140625 61.09765625 -2.42140625 61.09765625 5.05859375 61.09765625 C12.35820105 51.26230036 12.35820105 51.26230036 14.5625 39.734375 C12.94940555 36.89034064 11.16431624 34.59700744 9.05859375 32.09765625 C8.72287354 31.42323486 8.38715332 30.74881348 8.04125977 30.05395508 C5.89029242 25.71704972 5.89029242 25.71704972 1.88305664 23.31152344 C-0.75366246 22.97988681 -3.22345994 22.93633325 -5.87890625 23.03515625 C-7.23640991 23.06536865 -7.23640991 23.06536865 -8.62133789 23.09619141 C-13.53047172 23.39404189 -16.96574613 23.62615937 -19.87890625 27.97265625 Z " fill="#F55116" transform="translate(565.94140625,419.90234375)"/>
<path d="M0 0 C4.7854268 3.00683198 8.72887316 5.7045665 11 11 C9.62500127 12.70451912 8.22420707 14.38825686 6.8125 16.0625 C6.03519531 17.00222656 5.25789063 17.94195313 4.45703125 18.91015625 C2 21 2 21 -0.6328125 20.953125 C-3.32373489 19.8696513 -5.05677585 18.2424082 -7.21484375 16.34375 C-13.65545311 11.49567643 -21.12032779 10.00241329 -29 11 C-36.56506618 12.31621928 -42.07546298 16.16881373 -47 22 C-51.8448017 30.24769813 -54.3548232 38.88143744 -52.5390625 48.421875 C-50.16526663 57.41437228 -45.73637767 64.56553433 -37.99609375 69.84765625 C-31.45302331 73.62496697 -23.66322701 74.24164592 -16.41796875 72.3125 C-11.13519327 70.364933 -7.01371372 67.78651865 -2.7890625 64.07421875 C-1 63 -1 63 0.99609375 63.125 C3.40528067 64.17696466 4.84248962 65.44347647 6.6875 67.3125 C7.28949219 67.90675781 7.89148438 68.50101563 8.51171875 69.11328125 C10.08578165 71.10874682 10.58891824 72.51706615 11 75 C-0.06864684 85.72854875 -11.62614315 89.43240893 -26.77319336 89.36352539 C-39.38460882 89.08859385 -49.08579753 84.53750603 -58.22265625 75.8984375 C-68.97722724 64.52070445 -71.62122987 52.15201175 -71.30859375 36.96484375 C-70.73059227 24.24161618 -64.81523128 14.31530253 -55.6875 5.6875 C-40.31851918 -7.27271381 -17.7486646 -9.23207521 0 0 Z " fill="#4C4C4C" transform="translate(78,541)"/>
</svg>
